<?xml version="1.0" encoding="UTF-8"?>
<svg height="128px" viewBox="0 0 128 128" width="128px" xmlns="http://www.w3.org/2000/svg" xmlns:xlink="http://www.w3.org/1999/xlink">
    <linearGradient id="a" gradientUnits="userSpaceOnUse" x1="4" x2="124" y1="96.010002" y2="96.010002">
        <stop offset="0" stop-color="#b0b0b0"/>
        <stop offset="0.078125" stop-color="#c0bfbc"/>
        <stop offset="0.192708" stop-color="#b0b0b0"/>
        <stop offset="0.802083" stop-color="#b0b0b0"/>
        <stop offset="0.927083" stop-color="#c0bfbc"/>
        <stop offset="1" stop-color="#b0b0b0"/>
    </linearGradient>
    <linearGradient id="b" gradientUnits="userSpaceOnUse" x1="82.547302" x2="75.456398" y1="85.636398" y2="52.909">
        <stop offset="0" stop-color="#b0b0b0"/>
        <stop offset="1" stop-color="#e4e4e4"/>
    </linearGradient>
    <radialGradient id="c" cx="0" cy="0" gradientTransform="matrix(-271.818376 -38.182241 10.343676 -73.636361 114.181999 64.363701)" gradientUnits="userSpaceOnUse" r="1">
        <stop offset="0" stop-color="#ffffff" stop-opacity="0.101961"/>
        <stop offset="1" stop-color="#ffffff" stop-opacity="0.007843"/>
    </radialGradient>
    <path d="m 111.777344 112.363281 c 0.644531 0 1.25 -0.308593 1.617187 -0.839843 c 6.6875 -9.675782 10.605469 -21.414063 10.605469 -34.070313 c 0 -33.136719 -26.863281 -60 -60 -60 s -60 26.863281 -60 60 c 0 12.65625 3.917969 24.394531 10.605469 34.070313 c 0.363281 0.53125 0.972656 0.839843 1.617187 0.839843 z m 0 0" fill="url(#a)" fill-rule="evenodd"/>
    <path d="m 111.777344 106.910156 c 0.644531 0 1.25 -0.308594 1.617187 -0.839844 c 6.6875 -9.679687 10.605469 -21.417968 10.605469 -34.070312 c 0 -33.136719 -26.863281 -60 -60 -60 s -60 26.863281 -60 60 c 0 12.652344 3.917969 24.390625 10.605469 34.070312 c 0.363281 0.53125 0.972656 0.839844 1.617187 0.839844 z m 0 0" fill="#eaeaea" fill-rule="evenodd"/>
    <path d="m 113.53125 91.636719 c 0.824219 0 1.570312 -0.507813 1.847656 -1.285157 c 2.050782 -5.734374 3.164063 -11.914062 3.164063 -18.351562 c 0 -30.125 -24.417969 -54.546875 -54.542969 -54.546875 s -54.546875 24.421875 -54.546875 54.546875 c 0 6.4375 1.117187 12.617188 3.164063 18.351562 c 0.277343 0.777344 1.023437 1.285157 1.847656 1.285157 z m 0 0" fill="#303030" fill-rule="evenodd"/>
    <path d="m 113.53125 91.636719 c 0.824219 0 1.570312 -0.507813 1.847656 -1.285157 c 2.050782 -5.734374 3.164063 -11.914062 3.164063 -18.351562 c 0 -30.125 -24.417969 -54.546875 -54.542969 -54.546875 s -54.546875 24.421875 -54.546875 54.546875 c 0 6.4375 1.117187 12.617188 3.164063 18.351562 c 0.277343 0.777344 1.023437 1.285157 1.847656 1.285157 z m 0 0" fill="#241f31" fill-rule="evenodd"/>
    <path d="m 105 79.230469 c 1.089844 0.191406 2.132812 -0.535157 2.273438 -1.628907 c 0.738281 -5.691406 0.34375 -11.480468 -1.164063 -17.03125 c -1.679687 -6.195312 -4.707031 -11.941406 -8.867187 -16.835937 c -4.15625 -4.890625 -9.34375 -8.800781 -15.1875 -11.457031 c -5.84375 -2.660156 -12.199219 -3.992188 -18.621094 -3.910156 c -6.417969 0.082031 -12.738282 1.582031 -18.511719 4.386718 c -5.773437 2.804688 -10.855469 6.851563 -14.886719 11.847656 c -4.03125 4.996094 -6.910156 10.820313 -8.429687 17.058594 c -1.363281 5.585938 -1.609375 11.382813 -0.722657 17.054688 c 0.167969 1.089844 1.226563 1.789062 2.3125 1.570312 l 13.183594 -2.679687 c 1.082032 -0.21875 1.773438 -1.273438 1.636719 -2.371094 c -0.390625 -3.148437 -0.207031 -6.347656 0.546875 -9.4375 c 0.910156 -3.742187 2.640625 -7.238281 5.058594 -10.234375 c 2.417968 -3 5.46875 -5.425781 8.929687 -7.109375 c 3.464844 -1.683594 7.257813 -2.582031 11.109375 -2.632813 c 3.851563 -0.050781 7.667969 0.75 11.171875 2.34375 c 3.507813 1.59375 6.617188 3.941407 9.113281 6.878907 c 2.496094 2.933593 4.3125 6.382812 5.320313 10.097656 c 0.832031 3.074219 1.097656 6.265625 0.789063 9.425781 c -0.109376 1.097656 0.609374 2.136719 1.695312 2.328125 z m 0 0" fill="#3584e4"/>
    <path d="m 105 79.230469 c 1.089844 0.191406 2.132812 -0.535157 2.273438 -1.628907 c 0.828124 -6.398437 0.226562 -12.90625 -1.765626 -19.058593 c -1.996093 -6.152344 -5.328124 -11.773438 -9.75 -16.46875 c -0.757812 -0.804688 -2.027343 -0.78125 -2.796874 0.015625 l -9.359376 9.664062 c -0.769531 0.792969 -0.742187 2.054688 -0.007812 2.882813 c 2.386719 2.691406 4.195312 5.851562 5.308594 9.289062 c 1.113281 3.4375 1.503906 7.058594 1.152344 10.640625 c -0.109376 1.097656 0.609374 2.136719 1.695312 2.328125 z m 0 0" fill="#ed333b"/>
    <g fill="#ffffff">
        <path d="m 33.914062 41.914062 c 0.429688 -0.425781 1.117188 -0.425781 1.542969 0 l 3.085938 3.085938 c 0.425781 0.425781 0.425781 1.117188 0 1.542969 s -1.117188 0.425781 -1.542969 0 l -3.085938 -3.085938 c -0.425781 -0.425781 -0.425781 -1.117187 0 -1.542969 z m 0 0"/>
        <path d="m 89.457031 46.542969 c -0.425781 -0.425781 -0.425781 -1.117188 0 -1.542969 l 3.085938 -3.085938 c 0.425781 -0.425781 1.117187 -0.425781 1.542969 0 c 0.425781 0.429688 0.425781 1.117188 0 1.542969 l -3.085938 3.085938 c -0.425781 0.425781 -1.117188 0.425781 -1.542969 0 z m 0 0"/>
        <path d="m 47.722656 32.691406 c 0.554688 -0.230468 1.191406 0.035156 1.421875 0.59375 l 1.671875 4.03125 c 0.230469 0.554688 -0.035156 1.191406 -0.589844 1.421875 c -0.558593 0.230469 -1.195312 -0.03125 -1.425781 -0.589843 l -1.671875 -4.03125 c -0.230468 -0.554688 0.035156 -1.195313 0.59375 -1.425782 z m 0 0"/>
        <path d="m 97.261719 58.222656 c -0.230469 -0.554687 0.035156 -1.195312 0.589843 -1.425781 l 4.03125 -1.667969 c 0.558594 -0.230468 1.195313 0.03125 1.425782 0.589844 c 0.230468 0.554688 -0.03125 1.195312 -0.589844 1.425781 l -4.03125 1.667969 c -0.554688 0.230469 -1.195312 -0.03125 -1.425781 -0.589844 z m 0 0"/>
        <path d="m 80.285156 32.691406 c 0.554688 0.230469 0.820313 0.871094 0.589844 1.425782 l -1.671875 4.03125 c -0.230469 0.558593 -0.867187 0.820312 -1.425781 0.589843 c -0.554688 -0.230469 -0.820313 -0.867187 -0.589844 -1.421875 l 1.671875 -4.03125 c 0.230469 -0.558594 0.867187 -0.824218 1.425781 -0.59375 z m 0 0"/>
        <path d="m 24.695312 55.71875 c 0.230469 -0.558594 0.871094 -0.820312 1.425782 -0.589844 l 4.03125 1.667969 c 0.558594 0.230469 0.820312 0.871094 0.589844 1.425781 c -0.230469 0.558594 -0.867188 0.820313 -1.421876 0.589844 l -4.03125 -1.667969 c -0.558593 -0.230469 -0.824218 -0.871093 -0.59375 -1.425781 z m 0 0"/>
        <path d="m 64 29.453125 c 0.605469 0 1.09375 0.488281 1.09375 1.09375 v 4.363281 c 0 0.601563 -0.488281 1.089844 -1.09375 1.089844 c -0.601562 0 -1.089844 -0.488281 -1.089844 -1.089844 v -4.363281 c 0 -0.605469 0.488282 -1.09375 1.089844 -1.09375 z m 0 0"/>
    </g>
    <path d="m 68.574219 74.976562 c -0.972657 1.492188 -2.660157 2.476563 -4.574219 2.476563 c -3.011719 0 -5.453125 -2.441406 -5.453125 -5.453125 c 0 -1.773438 0.847656 -3.351562 2.160156 -4.347656 c 0.167969 -0.195313 0.359375 -0.382813 0.5625 -0.5625 l 34.527344 -29.695313 c 0.644531 -0.554687 1.613281 -0.519531 2.214844 0.082031 c 0.597656 0.597657 0.640625 1.550782 0.097656 2.199219 l -29.207031 34.941407 c -0.105469 0.125 -0.214844 0.246093 -0.328125 0.359374 z m 0 0" fill="url(#b)" fill-rule="evenodd"/>
    <path d="m 99.996094 72 c 0 -0.601562 0.492187 -1.089844 1.09375 -1.089844 h 4.363281 c 0.601563 0 1.089844 0.488282 1.089844 1.089844 s -0.488281 1.089844 -1.089844 1.089844 h -4.363281 c -0.601563 0 -1.09375 -0.488282 -1.09375 -1.089844 z m 0 0" fill="#ffffff"/>
    <path d="m 21.453125 72 c 0 -0.601562 0.488281 -1.089844 1.089844 -1.089844 h 4.363281 c 0.605469 0 1.09375 0.488282 1.09375 1.089844 s -0.488281 1.089844 -1.09375 1.089844 h -4.363281 c -0.601563 0 -1.089844 -0.488282 -1.089844 -1.089844 z m 0 0" fill="#ffffff"/>
    <path d="m 109.480469 87.273438 c 0.816406 0 1.554687 -0.496094 1.835937 -1.261719 c 1.855469 -5.023438 2.867188 -10.429688 2.867188 -16.066407 c 0 -26.578124 -22.46875 -48.128906 -50.183594 -48.128906 s -50.179688 21.550782 -50.179688 48.128906 c 0 5.636719 1.007813 11.042969 2.863282 16.066407 c 0.28125 0.765625 1.019531 1.261719 1.835937 1.261719 z m 0 0" fill="url(#c)" fill-rule="evenodd"/>
    <path d="m 20.363281 98.183594 h 8.726563 v 2.179687 c 0 2.410157 -1.953125 4.363281 -4.363282 4.363281 c -2.410156 0 -4.363281 -1.953124 -4.363281 -4.363281 z m 0 0" fill="#949390"/>
    <path d="m 31.273438 98.183594 h 8.726562 v 2.179687 c 0 2.410157 -1.953125 4.363281 -4.363281 4.363281 c -2.410157 0 -4.363281 -1.953124 -4.363281 -4.363281 z m 0 0" fill="#949390"/>
    <path d="m 29.089844 98.183594 c 0 2.410156 -1.953125 4.363281 -4.363282 4.363281 c -2.410156 0 -4.363281 -1.953125 -4.363281 -4.363281 s 1.953125 -4.367188 4.363281 -4.367188 c 2.410157 0 4.363282 1.957032 4.363282 4.367188 z m 0 0" fill="#d5d3cf"/>
    <path d="m 40 98.183594 c 0 2.410156 -1.953125 4.363281 -4.363281 4.363281 c -2.410157 0 -4.363281 -1.953125 -4.363281 -4.363281 s 1.953124 -4.367188 4.363281 -4.367188 c 2.410156 0 4.363281 1.957032 4.363281 4.367188 z m 0 0" fill="#d5d3cf"/>
    <path d="m 64 69.816406 c -1.207031 0 -2.183594 0.980469 -2.183594 2.183594 s 0.976563 2.183594 2.183594 2.183594 c 1.203125 0 2.179688 -0.980469 2.179688 -2.183594 s -0.976563 -2.183594 -2.179688 -2.183594 z m 0 0" fill="#68676b"/>
</svg>
