<?xml version="1.0" encoding="UTF-8"?>
<svg xmlns="http://www.w3.org/2000/svg" height="16px" viewBox="0 0 16 16" width="16px"><path d="m 2.96875 1 c -1.074219 0 -1.96875 0.894531 -1.96875 1.96875 v 9.46875 l 0.3125 0.28125 l 1.6875 1.6875 v -11.40625 h 10 v 10 h -2 v 2 h 2.03125 c 1.074219 0 1.96875 -0.894531 1.96875 -1.96875 v -10.0625 c 0 -1.074219 -0.894531 -1.96875 -1.96875 -1.96875 z m 0 0"/><path d="m 5 9 c -0.554688 0 -1 0.445312 -1 1 v 4 c 0 0.554688 0.445312 1 1 1 h 4 c 0.554688 0 1 -0.445312 1 -1 v -4 c 0 -0.554688 -0.445312 -1 -1 -1 z m 0 1 h 2 v 4 h -2 z m 0 0"/></svg>
