<?xml version="1.0" encoding="UTF-8"?>
<svg xmlns="http://www.w3.org/2000/svg" xmlns:xlink="http://www.w3.org/1999/xlink" width="16px" height="16px" viewBox="0 0 16 16" version="1.1">
<g id="surface1453858">
<path style=" stroke:none;fill-rule:nonzero;fill:rgb(18.039216%,20.392157%,21.176471%);fill-opacity:1;" d="M 11.996094 12 C 11.292969 12.003906 10.640625 12.371094 10.28125 12.972656 L 6.996094 12.972656 C 6.445312 12.972656 5.996094 13.421875 5.996094 13.972656 C 5.996094 14.523438 6.445312 14.972656 6.996094 14.972656 L 10.242188 14.972656 C 10.59375 15.613281 11.265625 16.007812 11.996094 16.011719 C 12.726562 16.007812 13.394531 15.613281 13.746094 14.972656 L 15.027344 14.972656 C 15.578125 14.972656 16.027344 14.523438 16.027344 13.972656 C 16.027344 13.421875 15.578125 12.972656 15.027344 12.972656 L 13.714844 12.972656 C 13.351562 12.371094 12.699219 12 11.996094 12 Z M 11.996094 13 C 12.550781 13 13 13.449219 13 14.007812 C 13 14.5625 12.550781 15.011719 11.996094 15.011719 C 11.441406 15.011719 10.988281 14.5625 10.988281 14.007812 C 10.988281 13.449219 11.441406 13 11.996094 13 Z M 11.996094 13 "/>
<path style=" stroke:none;fill-rule:nonzero;fill:rgb(18.039216%,20.392157%,21.176471%);fill-opacity:1;" d="M 10.992188 10 L 13 10 L 13 13 L 10.992188 13 Z M 10.992188 10 "/>
<path style=" stroke:none;fill-rule:nonzero;fill:rgb(18.039216%,20.392157%,21.176471%);fill-opacity:1;" d="M 11.089844 1.996094 C 9.394531 1.996094 8 3.390625 8 5.085938 L 8 7.894531 C 8 9.589844 9.394531 10.984375 11.089844 10.984375 L 12.910156 10.984375 C 14.601562 10.984375 16 9.589844 16 7.894531 L 16 5.085938 C 16 3.390625 14.601562 1.996094 12.910156 1.996094 Z M 11.089844 3.996094 L 12.910156 3.996094 C 13.53125 3.996094 14 4.464844 14 5.085938 L 14 7.894531 C 14 8.515625 13.53125 8.984375 12.910156 8.984375 L 11.089844 8.984375 C 10.46875 8.984375 10 8.515625 10 7.894531 L 10 5.085938 C 10 4.464844 10.46875 3.996094 11.089844 3.996094 Z M 11.089844 3.996094 "/>
<path style=" stroke:none;fill-rule:nonzero;fill:rgb(18.039216%,20.392157%,21.176471%);fill-opacity:1;" d="M 4.027344 12 C 4.730469 12.003906 5.378906 12.371094 5.742188 12.972656 L 9.027344 12.972656 C 9.578125 12.972656 10.027344 13.421875 10.027344 13.972656 C 10.027344 14.523438 9.578125 14.972656 9.027344 14.972656 L 5.78125 14.972656 C 5.429688 15.613281 4.757812 16.007812 4.027344 16.011719 C 3.296875 16.007812 2.628906 15.613281 2.277344 14.972656 L 0.996094 14.972656 C 0.445312 14.972656 -0.00390625 14.523438 -0.00390625 13.972656 C -0.00390625 13.421875 0.445312 12.972656 0.996094 12.972656 L 2.308594 12.972656 C 2.671875 12.371094 3.324219 12 4.027344 12 Z M 4.027344 13 C 3.472656 13 3.019531 13.449219 3.023438 14.007812 C 3.019531 14.5625 3.472656 15.011719 4.027344 15.011719 C 4.582031 15.011719 5.035156 14.5625 5.035156 14.007812 C 5.035156 13.449219 4.582031 13 4.027344 13 Z M 4.027344 13 "/>
<path style=" stroke:none;fill-rule:nonzero;fill:rgb(18.039216%,20.392157%,21.176471%);fill-opacity:1;" d="M 5.03125 10 L 3.023438 10 L 3.023438 13 L 5.03125 13 Z M 5.03125 10 "/>
<path style=" stroke:none;fill-rule:nonzero;fill:rgb(18.039216%,20.392157%,21.176471%);fill-opacity:1;" d="M 4.933594 1.996094 C 6.625 1.996094 8.023438 3.390625 8.023438 5.085938 L 8.023438 7.894531 C 8.023438 9.589844 6.625 10.984375 4.933594 10.984375 L 3.113281 10.984375 C 1.417969 10.984375 0.0234375 9.589844 0.0234375 7.894531 L 0.0234375 5.085938 C 0.0234375 3.390625 1.417969 1.996094 3.113281 1.996094 Z M 4.933594 3.996094 L 3.113281 3.996094 C 2.492188 3.996094 2.023438 4.464844 2.023438 5.085938 L 2.023438 7.894531 C 2.023438 8.515625 2.492188 8.984375 3.113281 8.984375 L 4.933594 8.984375 C 5.554688 8.984375 6.023438 8.515625 6.023438 7.894531 L 6.023438 5.085938 C 6.023438 4.464844 5.554688 3.996094 4.933594 3.996094 Z M 4.933594 3.996094 "/>
<path style=" stroke:none;fill-rule:nonzero;fill:rgb(18.039216%,20.392157%,21.176471%);fill-opacity:1;" d="M 1 7 L 7 7 L 7 8.050781 L 1 8.050781 Z M 1 7 "/>
<path style=" stroke:none;fill-rule:nonzero;fill:rgb(18.039216%,20.392157%,21.176471%);fill-opacity:1;" d="M 9 7 L 15 7 L 15 8.050781 L 9 8.050781 Z M 9 7 "/>
</g>
</svg>
