<?xml version="1.0" encoding="UTF-8"?>
<svg xmlns="http://www.w3.org/2000/svg" xmlns:xlink="http://www.w3.org/1999/xlink" height="16px" viewBox="0 0 16 16" width="16px"><filter id="a" height="100%" width="100%" x="0%" y="0%"><feColorMatrix color-interpolation-filters="sRGB" values="0 0 0 0 1 0 0 0 0 1 0 0 0 0 1 0 0 0 1 0"/></filter><mask id="b"><g filter="url(#a)"><path d="m -1.6 -1.6 h 19.2 v 19.2 h -19.2 z" fill-opacity="0.5"/></g></mask><clipPath id="c"><path d="m 0 0 h 1600 v 1200 h -1600 z"/></clipPath><mask id="d"><g filter="url(#a)"><path d="m -1.6 -1.6 h 19.2 v 19.2 h -19.2 z" fill-opacity="0.7"/></g></mask><clipPath id="e"><path d="m 0 0 h 1600 v 1200 h -1600 z"/></clipPath><mask id="f"><g filter="url(#a)"><path d="m -1.6 -1.6 h 19.2 v 19.2 h -19.2 z" fill-opacity="0.35"/></g></mask><clipPath id="g"><path d="m 0 0 h 1600 v 1200 h -1600 z"/></clipPath><g mask="url(#b)"><g clip-path="url(#c)" transform="matrix(1 0 0 1 -220 -376)"><path d="m 550 182 c -0.351562 0.003906 -0.695312 0.101562 -1 0.28125 v 3.4375 c 0.304688 0.179688 0.648438 0.277344 1 0.28125 c 1.105469 0 2 -0.894531 2 -2 s -0.894531 -2 -2 -2 z m 0 5 c -0.339844 0 -0.679688 0.058594 -1 0.175781 v 6.824219 h 4 v -4 c 0 -1.65625 -1.34375 -3 -3 -3 z m 0 0"/></g></g><g mask="url(#d)"><g clip-path="url(#e)" transform="matrix(1 0 0 1 -220 -376)"><path d="m 569 182 v 4 c 1.105469 0 2 -0.894531 2 -2 s -0.894531 -2 -2 -2 z m 0 5 v 7 h 3 v -4 c 0 -1.65625 -1.34375 -3 -3 -3 z m 0 0"/></g></g><g mask="url(#f)"><g clip-path="url(#g)" transform="matrix(1 0 0 1 -220 -376)"><path d="m 573 182.269531 v 3.449219 c 0.613281 -0.355469 0.996094 -1.007812 1 -1.71875 c 0 -0.714844 -0.382812 -1.375 -1 -1.730469 z m 0 4.90625 v 6.824219 h 2 v -4 c 0 -1.269531 -0.800781 -2.402344 -2 -2.824219 z m 0 0"/></g></g><g fill="#222222"><path d="m 3.195312 0 c -1.203124 0 -2.195312 1 -2.195312 2.199219 v 7.601562 c 0 1.199219 0.992188 2.199219 2.195312 2.199219 h 6.609376 c 1.203124 0 2.195312 -1 2.195312 -2.199219 v -7.601562 c 0 -1.199219 -0.992188 -2.199219 -2.195312 -2.199219 z m 0.304688 2 h 6 c 0.277344 0 0.5 0.222656 0.5 0.5 v 7 c 0 0.277344 -0.222656 0.5 -0.5 0.5 h -6 c -0.277344 0 -0.5 -0.222656 -0.5 -0.5 v -7 c 0 -0.277344 0.222656 -0.5 0.5 -0.5 z m 0 0"/><path d="m 13 4 v 9.8125 c 0 0.132812 -0.0625 0.1875 -0.1875 0.1875 h -6.625 c -0.125 0 -0.1875 -0.054688 -0.1875 -0.1875 v -0.8125 h -2 v 0.8125 c 0 1.199219 0.988281 2.1875 2.1875 2.1875 h 6.625 c 1.203125 0 2.1875 -0.988281 2.1875 -2.1875 v -7.625 c 0 -1.136719 -0.886719 -2.089844 -2 -2.1875 z m 0 0"/><path d="m 6.496094 3.003906 c -1.371094 0 -2.515625 1.128906 -2.496094 2.496094 l -0.007812 2.5 h 2.503906 c 1.371094 0 2.496094 -1.125 2.496094 -2.5 c 0 -1.371094 -1.125 -2.496094 -2.496094 -2.496094 z m 0.003906 1.496094 c 0.550781 0 1 0.449219 1 1 s -0.449219 1 -1 1 s -1 -0.449219 -1 -1 s 0.449219 -1 1 -1 z m 0 0"/></g></svg>
