<?xml version="1.0" encoding="UTF-8" standalone="no"?>
<svg
   height="16px"
   viewBox="0 0 16 16"
   width="16px"
   version="1.1"
   id="svg2"
   sodipodi:docname="select-all-symbolic.svg"
   inkscape:version="1.3.2 (091e20ef0f, 2023-11-25)"
   xmlns:inkscape="http://www.inkscape.org/namespaces/inkscape"
   xmlns:sodipodi="http://sodipodi.sourceforge.net/DTD/sodipodi-0.dtd"
   xmlns="http://www.w3.org/2000/svg"
   xmlns:svg="http://www.w3.org/2000/svg">
  <defs
     id="defs2" />
  <sodipodi:namedview
     id="namedview2"
     pagecolor="#ffffff"
     bordercolor="#000000"
     borderopacity="0.25"
     inkscape:showpageshadow="2"
     inkscape:pageopacity="0.0"
     inkscape:pagecheckerboard="0"
     inkscape:deskcolor="#d1d1d1"
     inkscape:zoom="51.486213"
     inkscape:cx="3.622329"
     inkscape:cy="9.8181625"
     inkscape:window-width="2560"
     inkscape:window-height="1371"
     inkscape:window-x="0"
     inkscape:window-y="0"
     inkscape:window-maximized="1"
     inkscape:current-layer="g2" />
  <g
     fill="#222222"
     id="g2">
    <path
       d="m 4.550781 1 c -1.9375 0 -3.5 1.5625 -3.5 3.5 s 1.5625 3.5 3.5 3.5 h 7 c 1.941407 0 3.5 -1.5625 3.5 -3.5 s -1.558593 -3.5 -3.5 -3.5 z m 7 2 c 0.832031 0 1.5 0.667969 1.5 1.5 s -0.667969 1.5 -1.5 1.5 s -1.5 -0.667969 -1.5 -1.5 s 0.667969 -1.5 1.5 -1.5 z m 0 0"
       id="path1" />
    <path
       d="m 11.550781,16 c 1.9375,0 3.5,-1.5625 3.5,-3.5 0,-1.9375 -1.5625,-3.5 -3.5,-3.5 h -7 c -1.941407,0 -3.5,1.5625 -3.5,3.5 0,1.9375 1.558593,3.5 3.5,3.5 z m 0,-2 c -0.832031,0 -1.5,-0.667969 -1.5,-1.5 0,-0.832031 0.667969,-1.5 1.5,-1.5 0.832031,0 1.5,0.667969 1.5,1.5 0,0.832031 -0.667969,1.5 -1.5,1.5 z m 0,0"
       fill-opacity="0.35"
       id="path2" />
  </g>
</svg>
