<?xml version="1.0" encoding="UTF-8"?>
<svg xmlns="http://www.w3.org/2000/svg" height="16px" viewBox="0 0 16 16" width="16px"><path d="m 3.195312 0 c -1.203124 0 -2.195312 1 -2.195312 2.199219 v 11.601562 c 0 1.199219 0.992188 2.199219 2.195312 2.199219 h 9.609376 c 1.203124 0 2.195312 -1 2.195312 -2.199219 v -11.601562 c 0 -1.199219 -0.992188 -2.199219 -2.195312 -2.199219 z m 0 2 h 9.609376 c 0.125 0 0.195312 0.070312 0.195312 0.199219 v 11.601562 c 0 0.128907 -0.070312 0.199219 -0.195312 0.199219 h -9.609376 c -0.125 0 -0.195312 -0.070312 -0.195312 -0.199219 v -11.601562 c 0 -0.128907 0.070312 -0.199219 0.195312 -0.199219 z m 2.804688 1 v 1 h -1 v 1 h -0.953125 v 1 h 0.953125 v 1 h -0.953125 v 1 h 0.953125 v 1 h -0.953125 v 1 h 0.953125 v 1 h 1 v 1 h 1 v -1 h 1 v 1 h 1 v -1 h 1 v 1 h 1 v -2 h 1 v -1 h -1 v -1 h 1 v -1 h -1 v -1 h 1 v -1 h -1 v -2 h -1 v 1 h -1 v -1 h -1 v 1 h -1 v -1 z m 0 0"/></svg>
